# xmcd
# 
# Track frame offsets:
#     150
#     14786
#     27995
#     43796
#     55614
#     66315
#     82459
#     99449
#     112082
#     125499
#     144408
#     159799
#     174845
#     186656
#     196677
#     210188
# 
# Disc length: 2966
# 
# Revision: 9
# Processed by: cddbd v1.5.2PL0 Copyright (c) Steve Scherf et al.
# Submitted via: fre:ac v1.0.27
# 
DISCID=df0b9410
DTITLE=Various Artist - Country Songs
DYEAR=2006
DGENRE=Country
TTITLE0=John Denver - Take Me Home Country Roads
TTITLE1=Lynn Anderson - Rose Garden
TTITLE2=Brenda Lee - You're The One, That I Want
TTITLE3=Kenny Rogers - Me And Bobby Mc Gee
TTITLE4=Roger Miller - King Of The Road
TTITLE5=Don GibsonGreen Green Grass Of Home - Green Green Grass Of Home
TTITLE6=Lynn Anderson - Blue Bayou
TTITLE7=Johnny Cash - Ring Of Fire
TTITLE8=Billie Joe Spears - Fever
TTITLE9=John Denver - Rocky Mountain High
TTITLE10=Kenny Rogers - For A Good Time
TTITLE11=Lynn Anderson - Desperado
TTITLE12=Wanda JacksonSweet Dreams - Sweet Dreams
TTITLE13=Brenda Lee - I Am Sorry
TTITLE14=Kenny Rogers - Ruby Don't Take Your Love To Town
TTITLE15=Lynn Anderson - Stand By Your Man
EXTD=
EXTT0=
EXTT1=
EXTT2=
EXTT3=
EXTT4=
EXTT5=
EXTT6=
EXTT7=
EXTT8=
EXTT9=
EXTT10=
EXTT11=
EXTT12=
EXTT13=
EXTT14=
EXTT15=
PLAYORDER=
